<?xml version="1.0" encoding="iso-8859-1"?>
<!-- Uploaded to: SVG Repo, www.svgrepo.com, Generator: SVG Repo Mixer Tools -->
<svg fill="#000000" height="800px" width="800px" version="1.1" id="Layer_1" xmlns="http://www.w3.org/2000/svg" xmlns:xlink="http://www.w3.org/1999/xlink" 
	 viewBox="0 0 511.999 511.999" xml:space="preserve">
<g>
	<g>
		<path d="M226.094,273.838c-7.638-2.773-13.575-1.052-16.856-0.317l-0.013,0.002c-8.248,1.847-12.629,2.829-14.811,3.318
			c-0.021,0.005-0.056,0.013-0.106,0.024c-0.051,0.011-0.097,0.022-0.145,0.033c-0.963,0.216-4.715,1.056-15.274,3.421
			c18.718,22.025,24.509,39.037,28.761,45.528l8.095-1.813l56.338,20.466c12.209-2.71,22.817-10.871,28.842-22.378l8.9-17.282
			C306.645,302.863,312.171,305.108,226.094,273.838z M193.663,277.009c-0.058,0.013-0.114,0.026-0.167,0.037
			C193.552,277.034,193.608,277.021,193.663,277.009z M194.43,276.837C194.443,276.834,194.442,276.834,194.43,276.837
			L194.43,276.837z"/>
	</g>
</g>
<g>
	<g>
		<path d="M407.939,416.857h-24.747c-8.623,0-15.613,6.99-15.613,15.613c0,8.623,6.99,15.613,15.613,15.613h24.747
			c8.555,0,15.515,7.003,15.515,15.613s-6.96,15.613-15.515,15.613h-47.25c-5.904-5.904-52.781-52.784-59.913-59.915
			c19.709-3.154,37.052-15.419,46.486-33.448l33.107-63.28c4.026-7.694,3.738-16.918-0.759-24.347
			c-4.498-7.43-12.551-11.936-21.235-11.936c-9.237,0-17.711,5.196-21.993,13.38l-16.648,32.175
			c-11.016,21.053-32.812,34.737-56.572,34.737h-19.934c-24.768,0-47.3-14.814-57.812-37.24
			c-17.48-37.289-48.923-66.584-87.542-80.887l-55.321-20.547c-10.661-3.949-22.651-1.898-31.375,5.487
			c-8.699,7.364-12.755,18.831-10.615,30.025l20.038,104.82c5.753,30.095,32.073,51.871,62.713,51.871h44.994
			c-5.775,5.775-46.012,46.014-59.104,59.106H33.017c-8.623,0-15.613,6.99-15.613,15.613c0,8.623,6.99,15.613,15.613,15.613
			c37.471,0,285.915,0,374.921,0c25.772,0,46.74-21.012,46.74-46.839C454.679,437.87,433.711,416.857,407.939,416.857z
			 M113.224,479.308c7.999-8,52.711-52.712,59.104-59.106h85.237c5.775,5.775,46.013,46.014,59.105,59.106H113.224z"/>
	</g>
</g>
<g>
	<g>
		<path d="M511.725,223.775c-1.243-5.086-6.373-8.201-11.459-6.957c-65.823,16.092-137.208,12.456-200.287-5.808
			c-8.255-2.391-15.078-4.666-20.213-6.503c-0.098-2.671-0.7-5.367-1.872-7.951c-4.821-10.628-17.346-15.333-27.973-10.513
			l-56.831,25.785l-21.993-12.378l-33.104-18.632l34.184,8.401c-0.322-7.992-3.339-15.685-8.637-21.783
			c-6.189-7.124-14.969-11.479-24.386-12.099l-32.479-2.138c-9.425-0.62-18.706,2.554-25.778,8.813
			c-7.073,6.261-11.347,15.09-11.875,24.52l-1.571,28.12l37.793,14.059c20.052,7.427,38.508,18.57,52.706,30.773
			c-0.783-1.115-40.685-41.839-40.685-41.839l33.084,18.619l31.107,17.508c5.704,3.304,12.855,3.891,19.304,0.979
			c0.011-0.004,0.022-0.01,0.032-0.015l66.588-30.211c1.622-0.735,3.095-1.658,4.427-2.719c5.316,1.94,12.496,4.38,21.3,6.966
			c38.471,11.294,79.603,17.231,120.066,17.231c28.106,0,59.245-2.862,91.594-10.772C509.855,233.99,512.97,228.859,511.725,223.775
			z"/>
	</g>
</g>
<g>
	<g>
		<path d="M180.202,57.818c1.024-1.732,2.017-3.492,2.969-5.293c1.63-3.088,0.812-6.901-1.944-9.045l-26.026-20.274
			c-1.682-1.309-3.856-1.807-5.94-1.361c-0.777,0.166-1.511,0.459-2.178,0.858c-6.758-9.806-22.922-27.053-49.463-19.285
			C61.361,14.03,58.467,46.83,37.726,59.371c-1.819,1.1-3.523,2.077-5.138,2.965c-2.606-1.248-5.512-1.968-8.59-1.968
			c-11.019,0-19.986,8.965-19.986,19.986s8.966,19.986,19.986,19.986c10.879,0,19.738-8.741,19.964-19.566
			c8.965,1.939,17.798,2.895,23.831,1.269c4.604-1.241,8.509-3.24,11.889-5.311c0.069,0.337,0.153,0.671,0.27,0.998l11.162,31.047
			c1.168,3.247,4.5,5.251,7.989,4.664c2.229-0.38,4.431-0.82,6.608-1.311c5.517,14.86,18.273,26.669,34.923,30.221
			c25.873,5.518,51.321-10.983,56.84-36.855C201.414,87.014,194.118,68.757,180.202,57.818z M23.998,85.933
			c-3.076,0-5.579-2.503-5.579-5.579s2.503-5.579,5.579-5.579c3.077,0,5.579,2.503,5.579,5.579S27.073,85.933,23.998,85.933z
			 M102.571,98.069l-6.275-17.457c23.711-6.102,43.37-20.346,56.553-40.978l14.635,11.401
			C152.918,75.334,130.197,91.797,102.571,98.069z"/>
	</g>
</g>
</svg>